<svg width="20" height="20" viewBox="0 0 20 20" fill="none" xmlns="http://www.w3.org/2000/svg">
<path fill-rule="evenodd" clip-rule="evenodd" d="M15.8043 13.842L14.8268 12.8645C14.3384 12.3761 13.5468 12.3761 13.0593 12.8645L12.2909 13.6328C12.1193 13.8045 11.8593 13.862 11.6376 13.7645C10.5243 13.277 9.42427 12.5378 8.44344 11.557C7.46677 10.5803 6.7301 9.4853 6.24177 8.37613C6.1401 8.14697 6.19927 7.8778 6.37677 7.7003L7.0651 7.01197C7.62427 6.4528 7.62427 5.66197 7.13594 5.17363L6.15844 4.19613C5.5076 3.5453 4.4526 3.5453 3.80177 4.19613L3.25844 4.73863C2.64094 5.35613 2.38344 6.24697 2.5501 7.1303C2.96177 9.3078 4.22677 11.692 6.2676 13.7328C8.30844 15.7736 10.6926 17.0386 12.8701 17.4503C13.7534 17.617 14.6443 17.3595 15.2618 16.742L15.8043 16.1995C16.4551 15.5486 16.4551 14.4936 15.8043 13.842V13.842Z" stroke="#0A9949" stroke-width="1.5" stroke-linecap="round" stroke-linejoin="round"/>
<path d="M10.8335 5.82599C11.6927 5.81433 12.556 6.13266 13.2118 6.78849" stroke="#0A9949" stroke-width="1.5" stroke-linecap="round" stroke-linejoin="round"/>
<path d="M15.5685 4.43188C14.261 3.12438 12.5468 2.47021 10.8335 2.47021" stroke="#0A9949" stroke-width="1.5" stroke-linecap="round" stroke-linejoin="round"/>
<path d="M14.1744 9.16691C14.1861 8.30774 13.8677 7.44441 13.2119 6.78857" stroke="#0A9949" stroke-width="1.5" stroke-linecap="round" stroke-linejoin="round"/>
<path d="M15.5684 4.43164C16.8759 5.73914 17.53 7.45331 17.53 9.16664" stroke="#0A9949" stroke-width="1.5" stroke-linecap="round" stroke-linejoin="round"/>
</svg>
