<svg width="28" height="28" viewBox="0 0 28 28" fill="none" xmlns="http://www.w3.org/2000/svg">
<g clip-path="url(#clip0_1_14774)">
<path d="M28.0016 14.0865C28.0016 6.30602 21.7331 -0.000976562 14.0015 -0.000976562C6.26655 0.000773438 -0.00195312 6.30602 -0.00195312 14.0883C-0.00195312 21.118 5.11855 26.9455 11.8105 28.0025V18.1588H8.25805V14.0883H11.814V10.982C11.814 7.45227 13.9053 5.50277 17.1025 5.50277C18.6355 5.50277 20.2368 5.77752 20.2368 5.77752V9.24252H18.471C16.7333 9.24252 16.1908 10.3293 16.1908 11.444V14.0865H20.0723L19.4528 18.157H16.189V28.0008C22.881 26.9438 28.0016 21.1163 28.0016 14.0865Z" fill="white"/>
</g>
<defs>
<clipPath id="clip0_1_14774">
<rect width="28" height="28" fill="white"/>
</clipPath>
</defs>
</svg>
