<svg width="22" height="22" viewBox="0 0 22 22" fill="none" xmlns="http://www.w3.org/2000/svg">
<g clip-path="url(#clip0_1_14055)">
<path d="M10.9937 2.74265C6.19841 -1.45156 0.10122 2.23359 0.00123982 7.2294C-0.0242387 8.5026 0.343288 9.7428 1.07486 10.8862H5.8167L6.66012 9.48041C6.90502 9.07228 7.49768 9.05913 7.75647 9.46601L9.53597 12.2623L12.1299 6.78634C12.3561 6.30852 13.0303 6.29336 13.2798 6.7567L15.5034 10.8862H20.9126C24.9197 4.6235 17.0004 -2.51096 10.9937 2.74265Z" fill="white"/>
<path d="M14.5508 11.8359L12.749 8.48975L10.2011 13.8686C9.98437 14.3262 9.34681 14.366 9.07497 13.9387L7.22874 11.0376L6.73408 11.862C6.6176 12.0561 6.40784 12.1749 6.18146 12.1749H2.09424C2.22236 12.3089 1.53951 11.6275 10.539 20.5804C10.7904 20.8305 11.1967 20.8305 11.4481 20.5804C20.3091 11.7652 19.765 12.3087 19.8929 12.1749H15.1183C14.8811 12.1749 14.6632 12.0447 14.5508 11.8359Z" fill="white"/>
</g>
<defs>
<clipPath id="clip0_1_14055">
<rect width="22" height="22" fill="white"/>
</clipPath>
</defs>
</svg>
