<svg width="40" height="40" viewBox="0 0 40 40" fill="none" xmlns="http://www.w3.org/2000/svg">
<g clip-path="url(#clip0_1_14271)">
<path d="M36.6665 17.3334C35.6818 17.3334 34.8318 17.8734 34.3698 18.6667H31.9218C31.6652 16.3527 30.7512 14.2407 29.3705 12.5147L31.3178 10.5674C31.5365 10.6254 31.7632 10.6667 31.9998 10.6667C33.4725 10.6667 34.6665 9.47275 34.6665 8.00008C34.6665 6.52741 33.4725 5.33342 31.9998 5.33342C30.5272 5.33342 29.3332 6.52741 29.3332 8.00008C29.3332 8.23741 29.3745 8.46275 29.4318 8.68208L27.4845 10.6294C25.7585 9.24942 23.6465 8.33475 21.3325 8.07808V5.63008C22.1265 5.16808 22.6665 4.31808 22.6665 3.33341C22.6665 1.86075 21.4725 0.666748 19.9998 0.666748C18.5272 0.666748 17.3332 1.86075 17.3332 3.33341C17.3332 4.31808 17.8732 5.16808 18.6665 5.63008V8.07808C16.3525 8.33475 14.2405 9.24875 12.5145 10.6294L10.5672 8.68208C10.6252 8.46275 10.6665 8.23675 10.6665 8.00008C10.6665 6.52741 9.4725 5.33342 7.99984 5.33342C6.52717 5.33342 5.33317 6.52741 5.33317 8.00008C5.33317 9.47275 6.52717 10.6667 7.99984 10.6667C8.23717 10.6667 8.46317 10.6254 8.68184 10.5681L10.6292 12.5154C9.2485 14.2414 8.3345 16.3534 8.07784 18.6674H5.62984C5.16784 17.8734 4.31784 17.3334 3.33317 17.3334C1.8605 17.3334 0.666504 18.5274 0.666504 20.0001C0.666504 21.4727 1.8605 22.6667 3.33317 22.6667C4.31784 22.6667 5.16784 22.1267 5.62984 21.3334H8.07784C8.3345 23.6474 9.2485 25.7594 10.6292 27.4854L8.68184 29.4327C8.46317 29.3747 8.23717 29.3334 7.99984 29.3334C6.52717 29.3334 5.33317 30.5274 5.33317 32.0001C5.33317 33.4727 6.52717 34.6667 7.99984 34.6667C9.4725 34.6667 10.6665 33.4727 10.6665 32.0001C10.6665 31.7634 10.6252 31.5367 10.5678 31.3181L12.5152 29.3707C14.2412 30.7507 16.3532 31.6654 18.6672 31.9221V34.3701C17.8738 34.8321 17.3338 35.6828 17.3338 36.6667C17.3338 38.1394 18.5278 39.3334 20.0005 39.3334C21.4732 39.3334 22.6672 38.1394 22.6672 36.6667C22.6672 35.6821 22.1272 34.8321 21.3338 34.3701V31.9221C23.6478 31.6654 25.7598 30.7507 27.4858 29.3707L29.4332 31.3181C29.3745 31.5367 29.3332 31.7634 29.3332 32.0001C29.3332 33.4727 30.5272 34.6667 31.9998 34.6667C33.4725 34.6667 34.6665 33.4727 34.6665 32.0001C34.6665 30.5274 33.4725 29.3334 31.9998 29.3334C31.7632 29.3334 31.5365 29.3747 31.3178 29.4321L29.3705 27.4847C30.7512 25.7587 31.6652 23.6467 31.9218 21.3327H34.3698C34.8318 22.1261 35.6825 22.6661 36.6665 22.6661C38.1392 22.6661 39.3332 21.4721 39.3332 19.9994C39.3332 18.5267 38.1392 17.3334 36.6665 17.3334ZM20.3332 13.3334C21.2538 13.3334 21.9998 14.0794 21.9998 15.0001C21.9998 15.9207 21.2538 16.6667 20.3332 16.6667C19.4125 16.6667 18.6665 15.9207 18.6665 15.0001C18.6665 14.0794 19.4125 13.3334 20.3332 13.3334ZM13.9998 24.6667C12.5272 24.6667 11.3332 23.4727 11.3332 22.0001C11.3332 20.5274 12.5272 19.3334 13.9998 19.3334C15.4725 19.3334 16.6665 20.5274 16.6665 22.0001C16.6665 23.4727 15.4725 24.6667 13.9998 24.6667ZM20.9998 27.3334C20.0792 27.3334 19.3332 26.5874 19.3332 25.6667C19.3332 24.7461 20.0792 24.0001 20.9998 24.0001C21.9205 24.0001 22.6665 24.7461 22.6665 25.6667C22.6665 26.5874 21.9205 27.3334 20.9998 27.3334ZM24.3332 22.0001C23.4125 22.0001 22.6665 21.2541 22.6665 20.3334C22.6665 19.4127 23.4125 18.6667 24.3332 18.6667C25.2538 18.6667 25.9998 19.4127 25.9998 20.3334C25.9998 21.2541 25.2538 22.0001 24.3332 22.0001Z" fill="url(#paint0_linear_1_14271)"/>
</g>
<defs>
<linearGradient id="paint0_linear_1_14271" x1="0.666504" y1="20.0001" x2="39.3332" y2="20.0001" gradientUnits="userSpaceOnUse">
<stop stop-color="#FBC2EB"/>
<stop offset="1" stop-color="#A18CD1"/>
</linearGradient>
<clipPath id="clip0_1_14271">
<rect width="40" height="40" fill="white"/>
</clipPath>
</defs>
</svg>
