<svg width="40" height="40" viewBox="0 0 40 40" fill="none" xmlns="http://www.w3.org/2000/svg">
<path fill-rule="evenodd" clip-rule="evenodd" d="M1.4735 15.2133C1.37283 15.0039 1.3335 14.7799 1.3335 14.5599C1.3335 13.9199 1.9275 13.3333 2.62016 13.3333C3.0335 13.3333 3.4335 13.5199 3.68683 13.8799L5.69616 16.8799C5.8975 17.1799 6.1575 17.4319 6.44283 17.6539C7.92635 18.8064 8.69962 20.2262 8.77431 20.3633C8.77769 20.3695 8.77964 20.3731 8.78016 20.3739C8.90683 20.5599 9.12083 20.6666 9.3335 20.6666C9.7175 20.6666 9.99883 20.3539 10.0002 19.9999C10.0002 19.8733 9.96416 19.7453 9.88683 19.6333C9.88343 19.6282 9.87521 19.6145 9.8623 19.5931C9.6727 19.2787 8.47131 17.2863 6.66683 15.9999V3.66659C6.66683 3.11325 7.1135 2.66659 7.66683 2.66659C8.22016 2.66659 8.66683 3.11325 8.66683 3.66659V11.9999C8.66683 12.3666 8.96683 12.6666 9.3335 12.6666C9.70016 12.6666 10.0002 12.3666 10.0002 11.9999V2.33325C10.0002 1.77992 10.4468 1.33325 11.0002 1.33325C11.5535 1.33325 12.0002 1.77992 12.0002 2.33325V11.9999C12.0002 12.3666 12.3002 12.6666 12.6668 12.6666C13.0335 12.6666 13.3335 12.3666 13.3335 11.9999V3.66659C13.3335 3.11325 13.7802 2.66659 14.3335 2.66659C14.8868 2.66659 15.3335 3.11325 15.3335 3.66659V13.6799C14.4868 15.1466 14.0002 16.8466 14.0002 18.6666C14.0002 21.6066 15.2802 24.2599 17.3068 26.0866C17.2146 26.3131 17.1036 26.5448 16.9857 26.7909C16.5417 27.7177 16.0002 28.8481 16.0002 30.6666V31.9999H7.3335V30.6666C7.3335 28.5733 6.66016 26.5466 5.4595 24.8399C5.37191 24.7145 5.28599 24.5925 5.20194 24.4732C4.30781 23.2041 3.62554 22.2357 3.40616 20.5599C3.22416 19.1119 2.8015 17.9606 1.4735 15.2133ZM16.6667 5.66675V11.8801C17.2534 11.2401 17.9274 10.6794 18.6667 10.2134V5.66675C18.6667 5.11341 18.2201 4.66675 17.6667 4.66675C17.1134 4.66675 16.6667 5.11341 16.6667 5.66675ZM34.334 13.9999C34.4834 13.9999 34.6347 13.9666 34.7774 13.8959C35.272 13.6513 35.474 13.0506 35.2294 12.5559C35.16 12.4153 33.4847 9.09461 30.108 7.43528C29.612 7.19194 29.0127 7.39661 28.7694 7.89261C28.526 8.38861 28.73 8.98794 29.2267 9.23128C32.0007 10.5939 33.4234 13.4153 33.4374 13.4439C33.612 13.7959 33.966 13.9999 34.334 13.9999ZM24.0002 27.3331C19.2135 27.3331 15.3335 23.4531 15.3335 18.6664C15.3335 13.8798 19.2135 9.99976 24.0002 9.99976C28.7868 9.99976 32.6668 13.8798 32.6668 18.6664C32.6668 20.3064 32.2075 21.8464 31.4135 23.1538C31.4135 23.1538 36.0028 26.9018 37.5528 28.1264C38.2068 28.6424 38.6668 29.4924 38.6668 30.3744C38.6668 31.9864 37.4315 33.3331 35.6822 33.3331C34.8648 33.3331 34.0155 32.9311 33.4528 32.2191L28.4868 26.0798C27.1802 26.8738 25.6402 27.3331 24.0002 27.3331ZM35.6668 29.3331C35.1135 29.3331 34.6668 29.7798 34.6668 30.3331C34.6668 30.8864 35.1135 31.3331 35.6668 31.3331C36.2202 31.3331 36.6668 30.8864 36.6668 30.3331C36.6668 29.7798 36.2202 29.3331 35.6668 29.3331ZM24.0002 11.9998C20.3202 11.9998 17.3335 14.9864 17.3335 18.6664C17.3335 22.3464 20.3202 25.3331 24.0002 25.3331C27.6635 25.3331 30.6668 22.3618 30.6668 18.6664C30.6668 14.9864 27.6802 11.9998 24.0002 11.9998ZM18.6667 18.6668C18.6667 20.2134 19.3334 21.6134 20.3934 22.5868C20.5667 21.6401 20.6667 20.6134 20.6667 19.4934V14.5134C19.4467 15.4868 18.6667 16.9868 18.6667 18.6668ZM6.00024 38.6666H17.3336V34.6666C17.3336 33.9306 16.7362 33.3333 16.0002 33.3333H7.33358C6.59758 33.3333 6.00024 33.9306 6.00024 34.6666V38.6666ZM27.5242 30.5174C27.3882 30.6007 26.1475 31.3334 24.3335 31.3334C22.5195 31.3334 21.2782 30.6014 21.1435 30.5187C20.6735 30.2294 20.5255 29.6134 20.8155 29.1434C21.1048 28.6721 21.7215 28.5261 22.1908 28.8161L22.1924 28.8169C22.2343 28.841 23.0934 29.3334 24.3335 29.3334C25.5728 29.3334 26.4495 28.8294 26.4802 28.8114C26.9488 28.5274 27.5622 28.6741 27.8515 29.1421C28.1408 29.6121 27.9942 30.2281 27.5242 30.5174Z" fill="url(#paint0_linear_1_14240)"/>
<defs>
<linearGradient id="paint0_linear_1_14240" x1="1.3335" y1="19.9999" x2="38.6668" y2="19.9999" gradientUnits="userSpaceOnUse">
<stop stop-color="#FBC2EB"/>
<stop offset="1" stop-color="#A18CD1"/>
</linearGradient>
</defs>
</svg>
