<svg width="28" height="28" viewBox="0 0 28 28" fill="none" xmlns="http://www.w3.org/2000/svg">
<g clip-path="url(#clip0_1_14783)">
<path d="M28.0001 5.29864C26.9712 5.75457 25.8659 6.06264 24.7039 6.20188C25.9028 5.48445 26.7999 4.3553 27.2275 3.02512C26.101 3.69422 24.8682 4.1652 23.5825 4.41757C22.7179 3.49445 21.5728 2.88258 20.3248 2.67698C19.0769 2.47137 17.7959 2.68353 16.6809 3.28051C15.5659 3.87749 14.6792 4.8259 14.1584 5.97848C13.6376 7.13106 13.5119 8.42333 13.8008 9.65467C11.5183 9.54006 9.28539 8.94679 7.24699 7.91337C5.20858 6.87994 3.41025 5.42945 1.96871 3.65604C1.4758 4.50629 1.19238 5.4921 1.19238 6.54198C1.19183 7.48712 1.42458 8.41778 1.86998 9.25139C2.31537 10.085 2.95964 10.7958 3.74562 11.3207C2.83409 11.2917 1.94267 11.0454 1.14556 10.6023V10.6762C1.14547 12.0018 1.604 13.2866 2.44335 14.3126C3.2827 15.3386 4.45118 16.0426 5.7505 16.3052C4.90491 16.534 4.01837 16.5677 3.15783 16.4037C3.52443 17.5443 4.23852 18.5417 5.20014 19.2563C6.16176 19.9709 7.32276 20.3669 8.52062 20.3889C6.48719 21.9851 3.97591 22.851 1.39078 22.8472C0.932848 22.8473 0.475305 22.8206 0.0205078 22.7671C2.64457 24.4543 5.69917 25.3497 8.81882 25.3462C19.3793 25.3462 25.1524 16.5997 25.1524 9.01389C25.1524 8.76744 25.1462 8.51852 25.1351 8.27207C26.2581 7.45998 27.2274 6.45437 27.9977 5.30233L28.0001 5.29864Z" fill="white"/>
</g>
<defs>
<clipPath id="clip0_1_14783">
<rect width="28" height="28" fill="white"/>
</clipPath>
</defs>
</svg>
