<svg width="28" height="28" viewBox="0 0 28 28" fill="none" xmlns="http://www.w3.org/2000/svg">
<g clip-path="url(#clip0_1_14777)">
<path d="M27.4169 7.59151C27.2584 7.02594 26.9495 6.51391 26.5232 6.10984C26.0849 5.69334 25.5477 5.39542 24.9622 5.24417C22.7712 4.66667 13.9932 4.66667 13.9932 4.66667C10.3338 4.62504 6.67523 4.80816 3.03823 5.21501C2.45279 5.37742 1.91656 5.68201 1.47723 6.10167C1.04557 6.51701 0.732898 7.02917 0.569565 7.59034C0.177207 9.70404 -0.0134275 11.8502 0.000231766 14C-0.0137682 16.1478 0.176398 18.2933 0.569565 20.4097C0.729398 20.9685 1.0409 21.4783 1.47373 21.8902C1.90657 22.302 2.44557 22.5995 3.03823 22.757C5.2584 23.3333 13.9932 23.3333 13.9932 23.3333C17.6573 23.375 21.3206 23.1919 24.9622 22.785C25.5477 22.6338 26.0849 22.3358 26.5232 21.9193C26.9549 21.5075 27.2617 20.9953 27.4157 20.4377C27.8183 18.3248 28.0141 16.1777 28.0002 14.0268C28.0305 11.8669 27.835 9.70967 27.4169 7.59034V7.59151ZM11.2026 17.9947V10.0065L18.5059 14.0012L11.2026 17.9947Z" fill="white"/>
</g>
<defs>
<clipPath id="clip0_1_14777">
<rect width="28" height="28" fill="white"/>
</clipPath>
</defs>
</svg>
