<svg width="32" height="39" viewBox="0 0 32 39" fill="none" xmlns="http://www.w3.org/2000/svg">
<path fill-rule="evenodd" clip-rule="evenodd" d="M9.33333 7.83483V11.6668C9.33333 13.9915 10.8213 15.9668 12.8967 16.6968L12.2493 15.1988C12.0847 14.8228 12 14.4182 12 14.0002C12 12.3462 13.346 11.0002 15 11.0002C16.08 11.0002 17.082 11.5855 17.614 12.5275L18.9293 14.8602C19.598 13.9688 20 12.8668 20 11.6668V8.3335C20 5.00016 18 3.00016 14.6667 3.00016C11.3333 3.00016 9.6 1.85683 8.66667 0.333496C8.66667 0.333496 7.33333 2.07816 7.33333 3.8755C7.33333 5.64816 8.05267 7.1075 9.33333 7.83483ZM2 11.6668H6.412L5.93 10.7022C5.868 10.5782 4.38467 7.66683 2 7.66683C0.897333 7.66683 0 8.56416 0 9.66683C0 10.7695 0.897333 11.6668 2 11.6668ZM2.43667 19.4542C2.724 19.5975 3.02867 19.6668 3.33 19.6668C4.06333 19.6668 4.77 19.2622 5.12133 18.5642L7.034 14.3335C7.034 14.3335 2.73067 14.3335 1.546 16.7695C1.40533 17.0588 1.33333 17.3655 1.33333 17.6668C1.33467 18.4002 1.738 19.1035 2.43667 19.4542ZM21.4373 22.0255L16.4533 13.1828C16.1667 12.6762 15.624 12.3335 15 12.3335C14.0793 12.3335 13.3333 13.0795 13.3333 14.0002C13.3333 14.2382 13.3833 14.4648 13.4733 14.6702L18.1967 25.6042C18.5573 26.4262 19.2087 27.6668 21 27.6668C24.6667 27.6668 24.6667 23.6108 24.6667 22.0002C24.6667 20.7775 23.7267 19.7748 22.53 19.6748L21.594 19.5855L22.5733 21.3228C22.6333 21.4235 22.6667 21.5422 22.6667 21.6668C22.6667 22.0355 22.3687 22.3335 22 22.3335C21.764 22.3335 21.556 22.2108 21.4373 22.0255ZM13.56 18.2348L16.9753 26.1408L16.9755 26.1412C17.287 26.849 18.2339 29.0002 21 29.0002C21.0783 29.0002 21.1535 28.9955 21.2286 28.9908C21.2634 28.9887 21.2983 28.9865 21.3333 28.9848V38.3335H8.66667V31.6668C8.66667 31.2982 8.36867 31.0002 8 31.0002C7.63133 31.0002 7.33333 31.2982 7.33333 31.6668V38.3335H4V27.0242C4 23.8755 6.14333 21.1308 9.198 20.3675L10.7173 19.9875C11.1947 19.8682 11.5673 19.4962 11.6873 19.0195L12 17.7755C12.492 17.9902 13.016 18.1435 13.56 18.2348ZM24 11.6668C24.5887 11.6668 25.0887 11.2855 25.2647 10.7555L25.9313 8.7555C25.976 8.62283 26 8.48083 26 8.3335C26 7.5975 25.4027 7.00016 24.6667 7.00016C24.078 7.00016 23.578 7.3815 23.4013 7.9115L22.7347 9.9115C22.69 10.0442 22.6667 10.1862 22.6667 10.3335C22.6667 11.0695 23.264 11.6668 24 11.6668ZM28.2447 20.9315C27.6893 20.7895 27.3333 20.2562 27.3333 19.6668C27.3333 18.9308 27.9307 18.3342 28.6667 18.3335C28.7893 18.3335 28.9413 18.3668 29.0887 18.4022L31.0887 19.0688C31.6433 19.2088 32 19.7442 32 20.3335C32 21.0695 31.4027 21.6668 30.6667 21.6668C30.5367 21.6668 30.3913 21.6335 30.2447 21.5982L28.2447 20.9315ZM31.3333 13.0002C31.3333 13.4602 31.094 13.8708 30.7387 14.1102L28.7453 15.4388C28.5327 15.5828 28.276 15.6668 28 15.6668C27.264 15.6668 26.6667 15.0695 26.6667 14.3335C26.6667 13.8735 26.906 13.4628 27.262 13.2235L29.2547 11.8948C29.4673 11.7508 29.724 11.6668 30 11.6668C30.736 11.6668 31.3333 12.2642 31.3333 13.0002Z" fill="url(#paint0_linear_1_14256)"/>
<defs>
<linearGradient id="paint0_linear_1_14256" x1="0" y1="19.3335" x2="32" y2="19.3335" gradientUnits="userSpaceOnUse">
<stop stop-color="#FBC2EB"/>
<stop offset="1" stop-color="#A18CD1"/>
</linearGradient>
</defs>
</svg>
