<svg width="40" height="40" viewBox="0 0 40 40" fill="none" xmlns="http://www.w3.org/2000/svg">
<path fill-rule="evenodd" clip-rule="evenodd" d="M5.33333 4.66667H3.33333C2.59733 4.66667 2 4.06933 2 3.33333C2 2.59733 2.59733 2 3.33333 2H14C14.736 2 15.3333 2.59733 15.3333 3.33333C15.3333 4.06933 14.736 4.66667 14 4.66667H12V6.66667H5.33333V4.66667ZM24 12C21.4347 12 19.1033 12.974 17.3333 14.5613V26.6667C17.3333 27.444 17.0547 28.1507 16.608 28.7173C18.4367 30.7293 21.0667 32 24 32C29.5227 32 34 27.5227 34 22C34 16.4773 29.5227 12 24 12ZM28.9427 20.276L24.276 24.9427C24.0353 25.184 23.702 25.3333 23.3333 25.3333C22.9647 25.3333 22.6313 25.184 22.3907 24.9427L19.724 22.276C19.4827 22.0353 19.3333 21.702 19.3333 21.3333C19.3333 20.5973 19.9307 20 20.6667 20C21.0353 20 21.3687 20.1493 21.6093 20.3907L23.3333 22.1147L27.0573 18.3907C27.298 18.1493 27.6313 18 28 18C28.736 18 29.3333 18.5973 29.3333 19.3333C29.3333 19.702 29.184 20.0353 28.9427 20.276ZM35.4627 16.5733C35.38 16.4 35.3333 16.206 35.3333 16C35.3333 15.264 35.9307 14.6667 36.6667 14.6667C37.198 14.6667 37.656 14.9773 37.8707 15.4267C38.8413 17.4647 39.3333 19.6767 39.3333 22C39.3333 24.3233 38.8413 26.5353 37.8707 28.5733C37.656 29.0227 37.198 29.3333 36.6667 29.3333C35.9307 29.3333 35.3333 28.736 35.3333 28C35.3333 27.7947 35.38 27.6 35.4627 27.4267C36.262 25.7493 36.6667 23.924 36.6667 22C36.6667 20.076 36.262 18.2507 35.4627 16.5733ZM14 8H3.33333C2.59733 8 2 8.59733 2 9.33333V12.6667H7C7.552 12.6667 8 13.1147 8 13.6667C8 14.2187 7.552 14.6667 7 14.6667H2V17.3333H5.66667C6.21867 17.3333 6.66667 17.7813 6.66667 18.3333C6.66667 18.8853 6.21867 19.3333 5.66667 19.3333H2V22H7C7.552 22 8 22.448 8 23C8 23.552 7.552 24 7 24H2V27.3333C2 28.0693 2.59733 28.6667 3.33333 28.6667H14C14.736 28.6667 15.3333 28.0693 15.3333 27.3333V9.33333C15.3333 8.59733 14.736 8 14 8ZM7.33333 33.2107C6.55867 32.9353 6 32.2033 6 31.3333V30H11.3333V31.3333C11.3333 32.2027 10.7747 32.9353 10 33.2107V37.3333C10 38.0693 9.40267 38.6667 8.66667 38.6667C7.93067 38.6667 7.33333 38.0693 7.33333 37.3333V33.2107Z" fill="url(#paint0_linear_1_14227)"/>
<defs>
<linearGradient id="paint0_linear_1_14227" x1="2" y1="20.3333" x2="39.3333" y2="20.3333" gradientUnits="userSpaceOnUse">
<stop stop-color="#FBC2EB"/>
<stop offset="1" stop-color="#A18CD1"/>
</linearGradient>
</defs>
</svg>
