<svg width="40" height="40" viewBox="0 0 40 40" fill="none" xmlns="http://www.w3.org/2000/svg">
<g clip-path="url(#clip0_1_14191)">
<path fill-rule="evenodd" clip-rule="evenodd" d="M32.1975 2.34743C33.6014 2.53524 34.7531 3.46704 35.4675 5.0061C36.3975 7.00985 36.5072 9.82462 35.7761 12.932C34.9706 16.3564 33.1946 19.9071 30.6361 23.2144C30.6361 23.219 30.6316 23.224 30.6249 23.2291V24.1506C29.1221 24.9979 25.0451 27.0374 19.9123 27.5001C20.2229 27.0759 20.4736 26.7641 20.6249 26.5825V24.5505H20.6238C19.9802 24.7034 19.5262 24.821 19.1838 24.9097C18.5148 25.0831 18.2716 25.1461 17.8722 25.1461C17.2274 25.1427 16.6006 24.9331 16.0834 24.548C15.5662 24.1628 15.1858 23.6223 14.9979 23.0055C14.9555 22.8645 14.9643 22.713 15.0227 22.5778C15.0811 22.4427 15.1854 22.3325 15.3171 22.2666L16.7186 21.5665C16.5044 21.0517 16.2992 20.7145 14.9263 20.9123C14.7781 20.9336 14.6272 20.901 14.5011 20.8205C14.3749 20.7399 14.2818 20.6167 14.2388 20.4734L13.8439 19.1576C13.2504 18.767 12.8221 18.518 12.5129 18.3381C11.9523 18.0121 11.7826 17.9134 11.7279 17.6113C11.6731 17.3088 11.7758 17.1822 12.3091 16.5245C12.6223 16.1383 13.0838 15.5691 13.7491 14.6738V10.7902C11.2693 9.0286 10.4386 5.21032 10.6435 2.3436C10.6908 1.68133 11.5618 1.54055 11.8244 2.10524C12.7159 3.67321 15.9073 2.72839 19.5504 1.64984C24.4446 0.200865 30.1541 -1.48946 32.1975 2.34743ZM10.6249 21.2499H11.874C12.0397 21.2499 12.1987 21.1841 12.3159 21.0669C12.4331 20.9497 12.499 20.7907 12.499 20.6249C12.499 20.4592 12.4331 20.3002 12.3159 20.183C12.1987 20.0658 12.0397 19.9999 11.874 19.9999H10.6249C10.4591 19.9999 10.3002 20.0658 10.1829 20.183C10.0657 20.3002 9.99989 20.4592 9.99989 20.6249C9.99989 20.7907 10.0657 20.9497 10.1829 21.0669C10.3002 21.1841 10.4591 21.2499 10.6249 21.2499ZM13.932 26.6919C14.0492 26.8091 14.2082 26.8749 14.374 26.8749C14.5397 26.8749 14.6987 26.8091 14.8159 26.6919C14.9331 26.5747 14.999 26.4157 14.999 26.2499V24.9999C14.999 24.8342 14.9331 24.6752 14.8159 24.558C14.6987 24.4408 14.5397 24.3749 14.374 24.3749C14.2082 24.3749 14.0492 24.4408 13.932 24.558C13.8148 24.6752 13.749 24.8342 13.749 24.9999V26.2499C13.749 26.4157 13.8148 26.5747 13.932 26.6919ZM11.249 24.9999C11.1253 24.9999 11.0045 24.9633 10.9017 24.8946C10.7989 24.8259 10.7188 24.7283 10.6715 24.6141C10.6242 24.4999 10.6118 24.3742 10.6359 24.253C10.6601 24.1317 10.7196 24.0204 10.807 23.933L12.057 22.683C12.1742 22.5657 12.3332 22.4999 12.499 22.4999C12.6647 22.4999 12.8237 22.5657 12.9409 22.6829C13.0582 22.8001 13.124 22.9591 13.124 23.1249C13.124 23.2907 13.0582 23.4497 12.941 23.5669L11.691 24.8169C11.633 24.875 11.5641 24.9211 11.4882 24.9525C11.4124 24.9839 11.3311 25 11.249 24.9999ZM5.62489 39.9999V35.6961L3.7659 27.6406L3.76508 27.637C3.75795 27.6061 3.75193 27.58 3.74855 27.5536C3.7303 27.4113 3.78863 27.2591 4.1616 26.286C4.44544 25.5454 4.91151 24.3294 5.66473 22.2805C6.06997 21.1999 8.80293 22.3652 8.27637 24.4706L7.52536 27.4749L8.46973 30.3073C8.6359 30.8059 9.37512 30.6838 9.37512 30.1603V28.7499C9.37512 28.2526 9.57267 27.7757 9.9243 27.4241C10.2759 27.0725 10.7528 26.8749 11.2501 26.8749C11.7474 26.8749 12.2243 27.0725 12.5759 27.4241C12.9276 27.7757 13.1251 28.2526 13.1251 28.7499C13.1132 28.8471 13.1169 29.0115 13.122 29.2327C13.1483 30.3855 13.2098 33.079 11.2657 35.8072C11.3851 37.5602 11.49 38.928 11.5775 39.9999H5.62489ZM30.7044 25.8749C29.5794 27.4999 20.6263 29.3749 18.9118 29.0426C17.3391 31.5536 15.4495 35.5426 15.6396 39.9999H22.5013V34.4413C22.5013 32.0405 24.4075 30.037 26.8085 30.0005C27.3885 29.9921 27.9644 30.0991 28.5027 30.3151C29.041 30.5311 29.5311 30.8519 29.9444 31.2589C30.3577 31.6659 30.6861 32.1509 30.9104 32.6858C31.1348 33.2207 31.2507 33.7949 31.2513 34.3749V39.9999H34.9865L35.0013 37.7533C35.0707 33.9793 33.7513 29.3749 30.7044 25.8749Z" fill="url(#paint0_linear_1_14191)"/>
</g>
<defs>
<linearGradient id="paint0_linear_1_14191" x1="3.74561" y1="19.9997" x2="36.2546" y2="19.9997" gradientUnits="userSpaceOnUse">
<stop stop-color="#FBC2EB"/>
<stop offset="1" stop-color="#A18CD1"/>
</linearGradient>
<clipPath id="clip0_1_14191">
<rect width="40" height="40" fill="white"/>
</clipPath>
</defs>
</svg>
