<svg width="40" height="40" viewBox="0 0 40 40" fill="none" xmlns="http://www.w3.org/2000/svg">
<g clip-path="url(#clip0_1_14206)">
<path fill-rule="evenodd" clip-rule="evenodd" d="M39.2165 5.00642C38.5019 3.46735 37.3504 2.53556 35.9463 2.34774C33.9067 -1.48209 28.1873 0.204887 23.2885 1.6498C19.6472 2.7238 16.4594 3.66406 15.5733 2.10556C15.3108 1.54087 14.4397 1.68165 14.3924 2.34392C14.1893 5.19227 15.0084 9.0236 17.5002 10.792V14.6741C16.8349 15.5694 16.3734 16.1386 16.0602 16.5248C15.5268 17.1825 15.4242 17.3092 15.479 17.6116C15.5337 17.9138 15.7073 18.0146 16.2482 18.3287C16.543 18.4999 16.9469 18.7345 17.5002 19.0995V21.5627C17.501 22.3084 17.7976 23.0233 18.3249 23.5506C18.8521 24.0778 19.567 24.3744 20.3127 24.3752H24.3752V26.6451C24.224 26.8267 23.9732 27.1384 23.6626 27.5626C28.7954 27.0999 32.8724 25.0604 34.3752 24.2132V23.2272C36.939 19.9164 38.7185 16.361 39.525 12.9323C40.256 9.82493 40.1464 7.01017 39.2165 5.00642ZM23.7502 15.6252C23.0874 15.6245 22.4519 15.3609 21.9833 14.8922C21.5146 14.4235 21.2509 13.7881 21.2502 13.1252C21.2502 11.9841 22.8788 9.02571 23.2052 8.44423C23.2595 8.34744 23.3387 8.26687 23.4344 8.2108C23.5302 8.15473 23.6392 8.12517 23.7502 8.12517C23.8612 8.12517 23.9702 8.15473 24.066 8.2108C24.1617 8.26687 24.2409 8.34744 24.2952 8.44423C24.6216 9.02571 26.2502 11.9841 26.2502 13.1252C26.2495 13.7881 25.9858 14.4235 25.5171 14.8922C25.0485 15.3609 24.413 15.6245 23.7502 15.6252ZM11.2502 5.62524V22.8218C12.0352 23.4641 12.667 24.2735 13.0995 25.191C13.532 26.1085 13.7543 27.1109 13.7502 28.1252C13.7502 34.2831 6.28005 37.2955 1.98958 32.9495C1.31792 32.2718 0.794976 31.4613 0.454155 30.5701C0.113334 29.6788 -0.0378791 28.7262 0.0101723 27.7732C0.0582237 26.8202 0.304483 25.8877 0.733226 25.0352C1.16197 24.1828 1.76377 23.4291 2.5002 22.8223V12.5002H5.6252C5.79096 12.5002 5.94993 12.4344 6.06715 12.3172C6.18436 12.2 6.2502 12.041 6.2502 11.8752C6.2502 11.7095 6.18436 11.5505 6.06715 11.4333C5.94993 11.3161 5.79096 11.2502 5.6252 11.2502H2.5002V10.0002H6.8752C7.04096 10.0002 7.19993 9.93439 7.31715 9.81718C7.43436 9.69997 7.5002 9.541 7.5002 9.37524C7.5002 9.20948 7.43436 9.05051 7.31715 8.9333C7.19993 8.81609 7.04096 8.75024 6.8752 8.75024H2.5002V7.50024H5.6252C5.79096 7.50024 5.94993 7.43439 6.06715 7.31718C6.18436 7.19997 6.2502 7.041 6.2502 6.87524C6.2502 6.70948 6.18436 6.55051 6.06715 6.4333C5.94993 6.31609 5.79096 6.25024 5.6252 6.25024H2.5002V5.62524C2.50076 5.12813 2.69849 4.65154 3.04999 4.30003C3.4015 3.94852 3.87809 3.7508 4.3752 3.75024H9.3752C9.87231 3.7508 10.3489 3.94852 10.7004 4.30003C11.0519 4.65154 11.2496 5.12813 11.2502 5.62524ZM4.14239 31.5421C4.91813 32.1625 5.88191 32.5004 6.8752 32.5002C7.8685 32.5004 8.83228 32.1625 9.60801 31.5421C10.3837 30.9218 10.9253 30.0558 11.1435 29.0868C11.3617 28.1178 11.2436 27.1033 10.8086 26.2103C10.3736 25.3173 9.6477 24.599 8.7502 24.1734V13.7502H5.0002V24.1734C4.1027 24.599 3.37677 25.3173 2.94181 26.2103C2.50684 27.1033 2.38875 28.1178 2.60695 29.0868C2.82516 30.0558 3.36666 30.9218 4.14239 31.5421ZM1.87524 35C1.87524 35.3452 1.59542 35.625 1.25024 35.625C0.905066 35.625 0.625244 35.3452 0.625244 35C0.625244 34.6548 0.905066 34.375 1.25024 34.375C1.59542 34.375 1.87524 34.6548 1.87524 35ZM4.37524 36.25C4.37524 36.5952 4.09542 36.875 3.75024 36.875C3.40507 36.875 3.12524 36.5952 3.12524 36.25C3.12524 35.9048 3.40507 35.625 3.75024 35.625C4.09542 35.625 4.37524 35.9048 4.37524 36.25ZM10.0002 36.875C10.3454 36.875 10.6252 36.5952 10.6252 36.25C10.6252 35.9048 10.3454 35.625 10.0002 35.625C9.65507 35.625 9.37524 35.9048 9.37524 36.25C9.37524 36.5952 9.65507 36.875 10.0002 36.875ZM7.50024 36.875C7.50024 37.2202 7.22042 37.5 6.87524 37.5C6.53007 37.5 6.25024 37.2202 6.25024 36.875C6.25024 36.5298 6.53007 36.25 6.87524 36.25C7.22042 36.25 7.50024 36.5298 7.50024 36.875ZM12.5002 35.625C12.8454 35.625 13.1252 35.3452 13.1252 35C13.1252 34.6548 12.8454 34.375 12.5002 34.375C12.1551 34.375 11.8752 34.6548 11.8752 35C11.8752 35.3452 12.1551 35.625 12.5002 35.625ZM22.6607 29.0427C24.3752 29.375 33.3284 27.5 34.4534 25.875C37.5002 29.375 38.8197 33.9794 38.7502 37.7534L38.7355 40H35.0002V34.375C34.9996 33.7949 34.8837 33.2208 34.6594 32.6859C34.435 32.151 34.1066 31.6659 33.6933 31.259C33.2799 30.852 32.7899 30.5312 32.2516 30.3152C31.7132 30.0991 31.1373 29.9922 30.5573 30.0005C28.1565 30.0371 26.2502 32.0405 26.2502 34.4414V40H19.3885C19.1984 35.5427 21.088 31.5537 22.6607 29.0427Z" fill="url(#paint0_linear_1_14206)"/>
</g>
<defs>
<linearGradient id="paint0_linear_1_14206" x1="0.00146484" y1="20.002" x2="40.0034" y2="20.002" gradientUnits="userSpaceOnUse">
<stop stop-color="#FBC2EB"/>
<stop offset="1" stop-color="#A18CD1"/>
</linearGradient>
<clipPath id="clip0_1_14206">
<rect width="40" height="40" fill="white"/>
</clipPath>
</defs>
</svg>
