<svg width="28" height="28" viewBox="0 0 28 28" fill="none" xmlns="http://www.w3.org/2000/svg">
<path d="M13.9995 9.7207C11.643 9.7207 9.71993 11.6438 9.71993 14.0003C9.71993 16.3568 11.643 18.2799 13.9995 18.2799C16.356 18.2799 18.2791 16.3568 18.2791 14.0003C18.2791 11.6438 16.356 9.7207 13.9995 9.7207ZM26.8351 14.0003C26.8351 12.2281 26.8511 10.472 26.7516 8.70297C26.6521 6.64826 26.1833 4.8247 24.6808 3.32219C23.1751 1.81647 21.3548 1.35095 19.3 1.25142C17.5278 1.15189 15.7717 1.16795 14.0027 1.16795C12.2305 1.16795 10.4744 1.15189 8.70541 1.25142C6.6507 1.35095 4.82714 1.81968 3.32463 3.32219C1.81891 4.82791 1.35339 6.64826 1.25386 8.70297C1.15434 10.4752 1.17039 12.2313 1.17039 14.0003C1.17039 15.7693 1.15434 17.5286 1.25386 19.2976C1.35339 21.3523 1.82212 23.1759 3.32463 24.6784C4.83035 26.1841 6.6507 26.6496 8.70541 26.7491C10.4776 26.8487 12.2337 26.8326 14.0027 26.8326C15.7749 26.8326 17.5311 26.8487 19.3 26.7491C21.3548 26.6496 23.1783 26.1809 24.6808 24.6784C26.1865 23.1727 26.6521 21.3523 26.7516 19.2976C26.8543 17.5286 26.8351 15.7725 26.8351 14.0003ZM13.9995 20.585C10.3556 20.585 7.4148 17.6442 7.4148 14.0003C7.4148 10.3564 10.3556 7.41556 13.9995 7.41556C17.6434 7.41556 20.5842 10.3564 20.5842 14.0003C20.5842 17.6442 17.6434 20.585 13.9995 20.585ZM20.8539 8.68371C20.0031 8.68371 19.3161 7.99666 19.3161 7.14588C19.3161 6.2951 20.0031 5.60806 20.8539 5.60806C21.7047 5.60806 22.3917 6.2951 22.3917 7.14588C22.392 7.3479 22.3524 7.54799 22.2752 7.73468C22.198 7.92138 22.0847 8.091 21.9419 8.23386C21.799 8.37671 21.6294 8.48997 21.4427 8.56717C21.256 8.64436 21.0559 8.68396 20.8539 8.68371Z" fill="white"/>
</svg>
